<svg width="1239" height="901" xmlns="http://www.w3.org/2000/svg" xmlns:xlink="http://www.w3.org/1999/xlink" xml:space="preserve" overflow="hidden"><defs><clipPath id="clip0"><rect x="491" y="82" width="1239" height="901"/></clipPath></defs><g clip-path="url(#clip0)" transform="translate(-491 -82)"><path d="M992.904 856.004 962.005 982.996 1260 982.996 1228.8 856.004 1110.85 858.079 992.904 856.004Z" fill="#02B2FB" fill-rule="evenodd"/><path d="M514.146 82.0002C501.25 82.0002 491 90.86 491 102.007L491 844.278C491 855.14 501.25 864 514.146 864L1706.85 864C1719.75 864 1730 855.14 1730 844.278L1730 102.007C1730 90.86 1719.75 82.0002 1706.85 82.0002Z" fill="#02B2FB" fill-rule="evenodd"/><path d="M950.479 943.004C939.202 943.004 930.004 952.053 930.004 963.143 930.004 973.947 939.202 982.996 950.479 982.996L1271.82 982.996C1283.1 982.996 1292 973.947 1292 963.143 1292 952.053 1283.1 943.004 1271.82 943.004Z" fill="#02B2FB" fill-rule="evenodd"/></g></svg>